<svg xmlns="http://www.w3.org/2000/svg" viewBox="0 0 24 24" width="48" height="48"><path fill="#E6A835" d="M17.9 4.2c-.4-.4-.9-.6-1.5-.6-.5 0-1.1.2-1.5.6L12 7.1l-2.9-2.9c-.4-.4-.9-.6-1.5-.6-.5 0-1.1.2-1.5.6-.8.8-.8 2.1 0 2.9L9 10l-2.9 2.9c-.8.8-.8 2.1 0 2.9.4.4.9.6 1.5.6.5 0 1.1-.2 1.5-.6L12 12.9l2.9 2.9c.4.4.9.6 1.5.6.5 0 1.1-.2 1.5-.6.8-.8.8-2.1 0-2.9L15 10l2.9-2.9c.8-.8.8-2.1 0-2.9zM12 11.4L9.1 8.5c-.4-.4-.4-1 0-1.4.4-.4 1-.4 1.4 0L12 8.6l1.5-1.5c.4-.4 1-.4 1.4 0 .4.4.4 1 0 1.4L12 11.4zm0 1.2l2.9 2.9c.4.4.4 1 0 1.4-.4.4-1 .4-1.4 0L12 15.4l-1.5 1.5c-.4.4-1 .4-1.4 0-.4-.4-.4-1 0-1.4L12 12.6zM5.1 19c0 .3.1.5.3.7l.9.9c.2.2.4.3.7.3.3 0 .5-.1.7-.3l1.2-1.2c-.5-.2-.9-.5-1.3-.9L5.1 19zm13.8-14c0-.3-.1-.5-.3-.7l-.9-.9c-.2-.2-.4-.3-.7-.3-.3 0-.5.1-.7.3l-1.2 1.2c.5.2.9.5 1.3.9l2.5-.5z"/></svg>
