<svg xmlns="http://www.w3.org/2000/svg" viewBox="0 0 24 24" width="48" height="48"><path fill="#E6A835" d="M10.312 3.147a1.415 1.415 0 0 1 1.415 1.415v14.876a1.415 1.415 0 0 1-1.415 1.415H8.896a1.415 1.415 0 0 1-1.415-1.415V4.562a1.415 1.415 0 0 1 1.415-1.415zm4.953 3.775a1.415 1.415 0 0 1 1.415 1.415v11.101a1.415 1.415 0 0 1-1.415 1.415h-1.416a1.415 1.415 0 0 1-1.415-1.415V8.337a1.415 1.415 0 0 1 1.415-1.415zm-9.906 3.776a1.415 1.415 0 0 1 1.415 1.415v7.325a1.415 1.415 0 0 1-1.415 1.415H3.943a1.415 1.415 0 0 1-1.415-1.415v-7.325a1.415 1.415 0 0 1 1.415-1.415zm14.859 0a1.415 1.415 0 0 1 1.415 1.415v7.325a1.415 1.415 0 0 1-1.415 1.415h-1.416a1.415 1.415 0 0 1-1.415-1.415v-7.325a1.415 1.415 0 0 1 1.415-1.415z"/></svg>
